<?xml version="1.0" standalone="no"?><svg xmlns:xlink="http://www.w3.org/1999/xlink" xmlns="http://www.w3.org/2000/svg" viewBox="0 0 500 500.00000000000006" preserveAspectRatio="xMaxYMax slice"><g transform="scale(1.3054830287206267)"><rect x="0" y="0" width="383" height="383" fill="#ffffff"/><circle cx="63.835" cy="63.835" r="63.835" fill="#269018"/><circle cx="191.505" cy="63.835" r="63.835" fill="#ecf00a"/><circle cx="319.165" cy="63.835" r="63.835" fill="#269018"/><circle cx="63.835" cy="191.505" r="63.835" fill="#269018"/><rect x="127.66666666666667" y="127.66666666666667" width="127.66666666666667" height="127.66666666666667" fill="#ffffff"/><circle cx="159.585" cy="159.585" r="31.915" fill="#269018"/><circle cx="223.415" cy="159.585" r="31.915" fill="#269018"/><circle cx="159.585" cy="223.415" r="31.915" fill="#ecf00a"/><circle cx="223.415" cy="223.415" r="31.915" fill="#269018"/><circle cx="319.165" cy="191.505" r="63.835" fill="#ecf00a"/><rect x="0" y="255.33333333333334" width="127.66666666666667" height="127.66666666666667" fill="#ffffff"/><circle cx="31.915" cy="287.245" r="31.915" fill="#269018"/><circle cx="95.745" cy="287.245" r="31.915" fill="#ecf00a"/><circle cx="31.915" cy="351.08500000000004" r="31.915" fill="#269018"/><circle cx="95.745" cy="351.08500000000004" r="31.915" fill="#ecf00a"/><circle cx="191.505" cy="319.165" r="63.835" fill="#269018"/><rect x="255.33333333333334" y="255.33333333333334" width="127.66666666666667" height="127.66666666666667" fill="#ffffff"/><circle cx="287.245" cy="287.245" r="31.915" fill="#ecf00a"/><circle cx="351.08500000000004" cy="287.245" r="31.915" fill="#ecf00a"/><circle cx="287.245" cy="351.08500000000004" r="31.915" fill="#269018"/><circle cx="351.08500000000004" cy="351.08500000000004" r="31.915" fill="#ecf00a"/></g></svg>